<svg width="42" height="41" viewBox="0 0 42 41" fill="none" xmlns="http://www.w3.org/2000/svg">
<path d="M5.52584 16.9034C5.66066 16.2632 5.83653 15.6244 6.05505 14.9897C8.9056 6.71113 17.9276 2.31083 26.2062 5.16138C30.8916 6.7747 34.3347 10.3648 35.9241 14.6781M35.9241 14.6781L37.8236 9.16158M35.9241 14.6781L35.8881 14.7826L30.2669 12.8472M36.5637 23.3988C36.429 24.0391 36.253 24.6779 36.0345 25.3125C33.184 33.5911 24.162 37.9914 15.8834 35.1408C11.4064 33.5993 8.06359 30.2528 6.38849 26.195M6.38849 26.195L6.57662 25.6487L12.1978 27.5842M6.38849 26.195L4.64111 31.2698" stroke="#12ADFE" stroke-width="2.59652" stroke-linecap="round" stroke-linejoin="round"/>
<path d="M29.5055 17.9281C31.2871 18.897 31.2871 21.405 29.5055 22.3738L18.7481 28.2236C17.0166 29.1653 14.8887 27.9396 14.8887 26.0008V14.3012C14.8887 12.3623 17.0166 11.1367 18.7481 12.0784L29.5055 17.9281Z" fill="#12ADFE"/>
</svg>
