<svg width="67" height="67" viewBox="0 0 67 67" fill="none" xmlns="http://www.w3.org/2000/svg">
<path d="M7.69152 28.067C7.91537 27.004 8.20739 25.9433 8.57023 24.8895C13.3034 11.1434 28.2838 3.83698 42.0299 8.57015C49.8097 11.249 55.5267 17.21 58.1659 24.3721M58.1659 24.3721L61.3199 15.2122M58.1659 24.3721L58.1062 24.5456L48.7725 21.332M59.228 38.8523C59.0043 39.9154 58.7121 40.9761 58.3493 42.0298C53.6161 55.776 38.6358 63.0824 24.8896 58.3492C17.4558 55.7895 11.9053 50.233 9.12389 43.4952M9.12389 43.4952L9.43627 42.588L18.7698 45.8018M9.12389 43.4952L6.22246 51.9216" stroke="#12ADFE" stroke-width="4.31136" stroke-linecap="round" stroke-linejoin="round"/>
<path d="M47.5083 29.7686C50.4665 31.3773 50.4665 35.5416 47.5083 37.1503L29.6464 46.8635C26.7713 48.4271 23.238 46.392 23.238 43.1727V23.7463C23.238 20.5269 26.7713 18.4919 29.6464 20.0554L47.5083 29.7686Z" fill="#12ADFE"/>
</svg>
